<svg width="1011" height="384" viewBox="0 0 1011 384" fill="none" xmlns="http://www.w3.org/2000/svg">
<g filter="url(#filter0_dd_2_12)">
<path d="M150.5 74L238.962 102.838L293.634 178.338V271.662L238.962 347.162L150.5 376L62.0383 347.162L7.366 271.662V178.338L62.0383 102.838L150.5 74Z" fill="#AA80FB"/>
</g>
<g filter="url(#filter1_dd_2_12)">
<path d="M133.081 271.501L133.484 295C133.484 297.596 133.081 299.7 132.275 301.311C131.559 302.922 130.082 305.026 127.844 307.622C125.696 310.218 122.16 315.142 117.236 322.393C112.402 329.733 109.135 334.254 107.434 335.955C105.823 337.655 103.943 339.446 101.794 341.326C99.646 343.295 97.5871 344.28 95.6177 344.28C93.6483 344.28 92.3055 344.101 91.5894 343.743C90.9627 343.474 90.5599 343.071 90.3809 342.534C90.2913 341.997 90.2913 341.415 90.3809 340.789C90.4704 340.251 91.1418 338.73 92.395 336.223C101.884 320.916 107.658 307.891 109.717 297.148C110.522 292.762 110.925 288.197 110.925 283.452V200.469C110.925 197.604 110.209 195.545 108.777 194.292C107.345 193.039 105.823 192.367 104.211 192.278C102.6 192.188 101.481 191.92 100.854 191.472C100.228 191.025 99.9146 190.129 99.9146 188.787C99.9146 187.354 99.9593 186.549 100.049 186.37C100.228 186.191 100.496 186.012 100.854 185.833C101.213 185.564 101.436 185.385 101.526 185.295L125.696 167.437C126.322 166.989 126.815 166.899 127.173 167.168C127.531 167.347 128.605 167.705 130.396 168.242C132.186 168.779 133.081 169.764 133.081 171.196V271.501ZM132.678 100.164V111.04C132.678 111.846 132.454 112.472 132.007 112.92C131.649 113.278 129.769 114.084 126.367 115.337C123.055 116.59 120.549 117.62 118.848 118.425C115.267 120.216 113.253 120.887 112.805 120.439C112.447 119.992 112.268 118.201 112.268 115.068V100.029C112.268 99.2236 112.447 98.6418 112.805 98.2837C113.253 97.8361 115.133 96.9857 118.445 95.7324C121.847 94.4792 124.398 93.4497 126.099 92.644C129.679 90.8537 131.649 90.1823 132.007 90.6299C132.454 91.0775 132.678 94.2554 132.678 100.164ZM172.424 143.132C172.693 141.342 174.304 140.447 177.258 140.447C180.302 140.447 181.824 141.342 181.824 143.132V167.034H205.591C210.156 167.034 212.439 167.616 212.439 168.779V180.596C212.439 181.759 210.156 182.341 205.591 182.341H181.824V265.728C181.824 276.38 184.957 282.333 191.223 283.586C195.968 284.571 200.891 282.781 205.994 278.215C208.053 276.335 209.485 275.888 210.291 276.873C211.186 277.857 211.812 278.618 212.17 279.155C212.528 279.692 212.708 280.229 212.708 280.767C212.708 281.214 212.708 281.572 212.708 281.841C212.797 282.288 212.305 283.049 211.23 284.124L208.411 286.541C199.101 294.597 190.015 298.267 181.152 297.551C172.38 296.835 166.203 291.688 162.622 282.109C160.653 276.917 159.668 270.606 159.668 263.176V182.341H153.491C148.926 182.341 146.643 181.759 146.643 180.596V168.779C146.643 167.616 148.523 167.034 152.283 167.034C158.907 167.034 163.652 164.706 166.516 160.051C169.47 155.396 171.44 149.757 172.424 143.132Z" fill="#F7F2FF"/>
</g>
<path d="M336.688 259.483L336.989 277C336.989 278.935 336.688 280.503 336.088 281.705C335.554 282.906 334.453 284.474 332.785 286.409C331.183 288.344 328.547 292.015 324.877 297.42C321.273 302.892 318.838 306.262 317.57 307.53C316.369 308.798 314.967 310.132 313.366 311.534C311.764 313.002 310.229 313.736 308.761 313.736C307.293 313.736 306.292 313.602 305.758 313.335C305.291 313.135 304.991 312.835 304.857 312.435C304.791 312.034 304.791 311.6 304.857 311.133C304.924 310.733 305.425 309.598 306.359 307.73C313.432 296.319 317.737 286.609 319.271 278.602C319.872 275.332 320.172 271.928 320.172 268.392V206.531C320.172 204.396 319.639 202.861 318.571 201.927C317.503 200.993 316.369 200.492 315.167 200.425C313.966 200.359 313.132 200.158 312.665 199.825C312.198 199.491 311.964 198.824 311.964 197.823C311.964 196.755 311.998 196.154 312.064 196.021C312.198 195.888 312.398 195.754 312.665 195.621C312.932 195.42 313.099 195.287 313.166 195.22L331.183 181.907C331.65 181.574 332.017 181.507 332.284 181.707C332.551 181.84 333.352 182.107 334.687 182.508C336.021 182.908 336.688 183.642 336.688 184.71V259.483ZM336.388 131.758V139.866C336.388 140.467 336.221 140.934 335.888 141.268C335.621 141.535 334.219 142.135 331.684 143.069C329.215 144.004 327.346 144.771 326.078 145.372C323.409 146.706 321.907 147.207 321.574 146.873C321.307 146.539 321.173 145.205 321.173 142.869V131.658C321.173 131.058 321.307 130.624 321.574 130.357C321.907 130.023 323.309 129.389 325.778 128.455C328.314 127.521 330.215 126.753 331.483 126.153C334.153 124.818 335.621 124.318 335.888 124.651C336.221 124.985 336.388 127.354 336.388 131.758ZM376.828 197.222C372.49 199.958 369.287 203.562 367.218 208.033C365.15 212.437 364.115 218.042 364.115 224.849C364.115 231.656 365.984 238.462 369.721 245.269C373.524 252.076 378.696 257.481 385.236 261.485C391.842 265.422 398.382 267.391 404.855 267.391C411.395 267.391 416.7 265.923 420.771 262.986C424.908 260.05 428.044 256.246 430.18 251.575C432.382 246.904 433.483 241.766 433.483 236.16C433.483 224.349 429.713 214.205 422.172 205.73C414.698 197.256 404.655 193.018 392.042 193.018C386.237 193.018 381.165 194.419 376.828 197.222ZM364.416 264.788C360.011 260.517 356.441 255.379 353.705 249.373C351.036 243.367 349.701 236.26 349.701 228.052C349.701 219.844 351.803 211.87 356.007 204.129C360.211 196.388 366.251 190.349 374.125 186.011C381.999 181.674 390.174 179.505 398.649 179.505C414.131 179.505 426.443 184.376 435.585 194.119C444.727 203.795 449.298 215.573 449.298 229.454C449.365 243.334 444.56 255.045 434.884 264.588C425.208 274.064 412.996 278.802 398.249 278.802C391.976 278.802 385.87 277.534 379.931 274.998C374.058 272.462 368.887 269.059 364.416 264.788ZM460.209 129.756L460.309 127.955C460.309 127.621 460.476 127.354 460.81 127.154C461.21 126.887 461.444 126.72 461.51 126.653L479.528 113.34C479.795 113.14 480.495 113.04 481.63 113.04C482.831 113.04 483.699 113.207 484.232 113.541C484.766 113.807 485.033 114.675 485.033 116.143V189.114C495.577 182.708 504.686 179.505 512.36 179.505C527.041 179.505 538.952 184.343 548.095 194.019C557.237 203.695 561.808 215.507 561.808 229.454C561.808 243.334 556.97 255.045 547.294 264.588C537.685 274.064 525.473 278.802 510.658 278.802C499.114 278.802 488.77 274.931 479.628 267.19L467.216 259.783C466.348 259.249 465.915 258.615 465.915 257.881C465.915 257.081 466.348 256.013 467.216 254.678C468.083 253.277 468.517 252.243 468.517 251.575V137.964C468.517 135.829 467.95 134.294 466.815 133.36C465.748 132.426 464.613 131.925 463.412 131.858C462.211 131.792 461.444 131.591 461.11 131.258C460.509 130.857 460.209 130.357 460.209 129.756ZM485.033 202.627V249.473C489.104 255.212 493.375 259.45 497.846 262.186C502.383 264.855 507.622 266.189 513.561 266.189C519.567 266.189 524.872 264.555 529.477 261.285C534.081 257.948 537.718 253.844 540.387 248.973C543.056 244.035 544.391 239.03 544.391 233.958C544.391 223.414 541.121 214.139 534.582 206.131C528.042 198.056 518.499 194.019 505.954 194.019C501.95 194.019 498.079 194.853 494.342 196.521C490.605 198.123 487.502 200.158 485.033 202.627ZM591.437 163.79C591.637 162.455 592.838 161.788 595.041 161.788C597.309 161.788 598.444 162.455 598.444 163.79V181.607H616.161C619.564 181.607 621.266 182.041 621.266 182.908V191.717C621.266 192.584 619.564 193.018 616.161 193.018H598.444V255.179C598.444 263.12 600.779 267.557 605.451 268.492C608.987 269.226 612.658 267.891 616.461 264.488C617.996 263.086 619.064 262.753 619.665 263.487C620.332 264.221 620.799 264.788 621.066 265.188C621.333 265.589 621.466 265.989 621.466 266.39C621.466 266.723 621.466 266.99 621.466 267.19C621.533 267.524 621.166 268.091 620.365 268.892L618.263 270.694C611.323 276.7 604.55 279.436 597.943 278.902C591.404 278.368 586.799 274.531 584.13 267.391C582.662 263.52 581.928 258.816 581.928 253.277V193.018H577.323C573.92 193.018 572.218 192.584 572.218 191.717V182.908C572.218 182.041 573.62 181.607 576.422 181.607C581.361 181.607 584.897 179.872 587.033 176.402C589.235 172.932 590.703 168.728 591.437 163.79ZM631.576 198.323L631.676 196.521C631.676 196.188 631.843 195.921 632.177 195.721C632.577 195.454 632.811 195.287 632.877 195.22L650.895 181.907C651.162 181.707 651.896 181.607 653.097 181.607C654.365 181.607 655.233 181.774 655.7 182.107C656.167 182.374 656.4 183.242 656.4 184.71V201.927C656.801 201.259 657.335 200.525 658.002 199.725C662.807 193.719 667.812 189.081 673.017 185.811C678.222 182.541 684.161 180.906 690.834 180.906C692.969 180.906 694.137 181.173 694.337 181.707C695.472 184.777 696.406 187.68 697.14 190.416L700.243 202.227C700.443 202.961 699.91 203.695 698.642 204.429C697.44 205.097 696.506 205.397 695.839 205.33C695.172 205.263 694.471 204.629 693.737 203.428L692.636 201.626C689.032 198.29 684.828 196.989 680.023 197.723C675.285 198.39 670.781 200.125 666.51 202.928C662.306 205.73 659.203 208.767 657.201 212.037C657.134 212.17 656.968 212.437 656.701 212.837C656.5 213.171 656.4 213.405 656.4 213.538V259.483C656.4 259.817 656.367 260.551 656.3 261.685C656.3 262.753 656.3 263.453 656.3 263.787C656.834 267.991 658.269 270.594 660.604 271.595C662.94 272.596 664.141 273.463 664.208 274.197C664.208 276.066 663.774 277 662.907 277H633.278C632.41 277 631.977 276.399 631.977 275.198C631.977 273.997 632.243 273.23 632.777 272.896C633.311 272.562 633.979 272.229 634.779 271.895C635.647 271.561 636.314 271.161 636.781 270.694C637.782 269.693 638.55 268.558 639.083 267.291C639.684 265.956 639.951 264.388 639.884 262.586C639.884 260.784 639.884 259.75 639.884 259.483V206.531C639.818 204.329 639.25 202.794 638.183 201.927C637.182 200.993 636.081 200.492 634.879 200.425C633.678 200.359 632.877 200.192 632.477 199.925C631.876 199.458 631.576 198.924 631.576 198.323ZM723.166 251.675C723.166 256.146 725.101 259.516 728.971 261.785C732.842 263.987 736.779 265.088 740.783 265.088C744.787 265.088 747.756 264.922 749.691 264.588C751.693 264.254 753.729 263.654 755.797 262.786C759.668 261.185 763.104 259.516 766.107 257.781C766.107 257.781 767.676 256.914 770.812 255.179L765.006 228.553C762.604 229.487 759.634 230.521 756.098 231.656L746.488 234.659C730.94 239.33 723.166 245.002 723.166 251.675ZM763.104 218.243C761.103 199.958 755.797 190.816 747.189 190.816C741.917 190.816 737.313 192.718 733.375 196.521C729.505 200.258 727.57 204.663 727.57 209.734L728.471 213.838C728.471 214.372 727.803 215.206 726.469 216.341C725.201 217.475 724.333 217.842 723.866 217.442L712.255 202.527C712.255 201.66 712.989 200.692 714.457 199.625C715.992 198.557 717.293 197.489 718.361 196.421L720.763 194.119C724.233 190.649 726.669 188.447 728.07 187.513L732.975 184.31C737.78 181.173 743.118 179.605 748.991 179.605C757.599 179.605 764.139 181.941 768.61 186.612C771.68 189.815 773.815 192.985 775.016 196.121C776.217 199.191 777.085 201.693 777.619 203.628C778.753 207.766 779.687 212.57 780.421 218.042L781.522 225.75C781.923 228.82 782.323 231.689 782.724 234.358C783.191 237.028 783.491 238.863 783.625 239.864C783.758 240.798 784.092 242.5 784.625 244.969C785.159 247.371 785.66 249.373 786.127 250.975C787.528 255.713 789.163 259.283 791.032 261.685C792.9 264.021 794.969 265.188 797.238 265.188C799.573 265.188 801.208 264.521 802.143 263.187C803.878 260.651 805.146 259.383 805.946 259.383C806.347 259.383 807.014 259.85 807.948 260.784C808.882 261.718 809.35 262.419 809.35 262.886C809.35 263.353 808.282 264.922 806.146 267.591C804.078 270.193 801.709 272.763 799.04 275.298C796.437 277.834 794.569 279.102 793.434 279.102C789.163 279.102 785.093 277.434 781.222 274.097C777.418 270.694 775.083 267.124 774.215 263.387C772.013 265.389 768.276 267.824 763.004 270.694C752.594 276.299 744.253 279.102 737.98 279.102C731.707 279.102 726.402 278.201 722.064 276.399C717.794 274.598 714.223 271.828 711.354 268.091C708.551 264.354 707.15 260.451 707.15 256.38C707.15 252.309 707.717 248.906 708.852 246.17C709.986 243.434 711.454 241.098 713.256 239.163C715.058 237.161 717.293 235.326 719.962 233.658C722.632 231.923 725.334 230.488 728.07 229.354C733.809 227.018 740.149 224.949 747.089 223.147C754.096 221.279 759.434 219.644 763.104 218.243ZM902.641 251.075C903.708 250.007 905.644 250.875 908.446 253.677C908.646 253.877 908.613 254.178 908.346 254.578C896.668 270.727 882.654 278.802 866.305 278.802C859.966 278.802 853.826 277.534 847.887 274.998C835.675 269.66 826.967 261.118 821.762 249.373C819.092 243.367 817.758 236.26 817.758 228.052C817.758 219.778 819.826 211.836 823.964 204.229C828.168 196.555 834.207 190.516 842.082 186.111C850.023 181.707 859.465 179.505 870.409 179.505C881.353 179.505 890.729 183.409 898.537 191.216C898.603 191.283 899.237 191.717 900.438 192.518C900.572 192.651 900.572 193.018 900.438 193.619L895.033 210.435C894.7 211.436 894.299 212.003 893.832 212.137C893.365 212.203 892.531 212.037 891.33 211.636C890.128 211.236 889.461 210.902 889.328 210.635C889.194 210.368 888.927 208.767 888.527 205.831C888.193 202.828 886.959 200.325 884.823 198.323C879.351 193.118 872.344 190.516 863.803 190.516C857.864 190.516 852.425 192.117 847.487 195.32C842.549 198.457 838.745 202.494 836.076 207.432C833.473 212.304 832.172 218.109 832.172 224.849C832.172 231.589 833.974 238.062 837.577 244.268C841.181 250.474 846.019 255.245 852.091 258.582C858.231 261.852 864.67 263.487 871.41 263.487C878.217 263.42 884.022 262.419 888.827 260.484C893.699 258.549 898.303 255.412 902.641 251.075ZM949.386 259.483L949.286 263.787C949.286 265.255 949.62 266.823 950.287 268.492C951.021 270.093 952.322 271.261 954.191 271.995C956.059 272.729 957.027 273.463 957.094 274.197C957.094 276.066 956.66 277 955.792 277H926.364C925.496 277 925.062 276.399 925.062 275.198C925.062 273.997 925.329 273.23 925.863 272.896C926.397 272.562 927.064 272.229 927.865 271.895C928.733 271.561 929.4 271.161 929.867 270.694C930.401 270.16 930.868 269.593 931.269 268.992C931.669 268.325 931.969 267.791 932.169 267.391C932.436 266.924 932.603 266.29 932.67 265.489C932.803 264.621 932.87 264.054 932.87 263.787V137.964C932.87 135.762 932.336 134.227 931.269 133.36C930.268 132.426 929.167 131.925 927.965 131.858C926.764 131.792 925.963 131.591 925.563 131.258C924.962 130.857 924.662 130.357 924.662 129.756L924.762 127.955C924.762 127.621 924.929 127.354 925.263 127.154C925.663 126.887 925.897 126.72 925.963 126.653L943.981 113.34C944.248 113.14 944.949 113.04 946.083 113.04C947.284 113.04 948.118 113.207 948.585 113.541C949.119 113.807 949.386 114.675 949.386 116.143V223.648H949.586L982.218 192.518C983.353 191.383 983.92 190.282 983.92 189.214C983.92 187.546 983.119 186.512 981.518 186.111C979.916 185.711 979.149 185.144 979.215 184.41C979.215 182.541 979.649 181.607 980.517 181.607H1003.54C1004.41 181.607 1004.84 182.208 1004.84 183.409C1004.84 184.61 1004.64 185.477 1004.24 186.011C1003.84 186.478 1003.21 187.079 1002.34 187.813C1001.54 188.48 1001 188.947 1000.74 189.214L970.707 217.842V218.143L1000.54 260.984C1006.28 267.991 1009.14 272.429 1009.14 274.297C1009.14 276.099 1008.71 277 1007.84 277H982.719C981.851 277 981.417 276.433 981.417 275.298C981.417 274.097 981.851 273.23 982.719 272.696C985.388 271.161 986.723 269.993 986.723 269.192C986.723 267.858 986.522 266.99 986.122 266.59L959.496 228.553H959.096L949.386 237.962V259.483Z" fill="#AA80FB"/>
<defs>
<filter id="filter0_dd_2_12" x="3.36597" y="74" width="294.268" height="310" filterUnits="userSpaceOnUse" color-interpolation-filters="sRGB">
<feFlood flood-opacity="0" result="BackgroundImageFix"/>
<feColorMatrix in="SourceAlpha" type="matrix" values="0 0 0 0 0 0 0 0 0 0 0 0 0 0 0 0 0 0 127 0" result="hardAlpha"/>
<feOffset dy="4"/>
<feGaussianBlur stdDeviation="2"/>
<feComposite in2="hardAlpha" operator="out"/>
<feColorMatrix type="matrix" values="0 0 0 0 0 0 0 0 0 0 0 0 0 0 0 0 0 0 0.25 0"/>
<feBlend mode="normal" in2="BackgroundImageFix" result="effect1_dropShadow_2_12"/>
<feColorMatrix in="SourceAlpha" type="matrix" values="0 0 0 0 0 0 0 0 0 0 0 0 0 0 0 0 0 0 127 0" result="hardAlpha"/>
<feOffset dy="4"/>
<feGaussianBlur stdDeviation="2"/>
<feComposite in2="hardAlpha" operator="out"/>
<feColorMatrix type="matrix" values="0 0 0 0 0 0 0 0 0 0 0 0 0 0 0 0 0 0 0.25 0"/>
<feBlend mode="normal" in2="effect1_dropShadow_2_12" result="effect2_dropShadow_2_12"/>
<feBlend mode="normal" in="SourceGraphic" in2="effect2_dropShadow_2_12" result="shape"/>
</filter>
<filter id="filter1_dd_2_12" x="86.2466" y="89.9585" width="130.595" height="262.321" filterUnits="userSpaceOnUse" color-interpolation-filters="sRGB">
<feFlood flood-opacity="0" result="BackgroundImageFix"/>
<feColorMatrix in="SourceAlpha" type="matrix" values="0 0 0 0 0 0 0 0 0 0 0 0 0 0 0 0 0 0 127 0" result="hardAlpha"/>
<feOffset dy="4"/>
<feGaussianBlur stdDeviation="2"/>
<feComposite in2="hardAlpha" operator="out"/>
<feColorMatrix type="matrix" values="0 0 0 0 0 0 0 0 0 0 0 0 0 0 0 0 0 0 0.25 0"/>
<feBlend mode="normal" in2="BackgroundImageFix" result="effect1_dropShadow_2_12"/>
<feColorMatrix in="SourceAlpha" type="matrix" values="0 0 0 0 0 0 0 0 0 0 0 0 0 0 0 0 0 0 127 0" result="hardAlpha"/>
<feOffset dy="4"/>
<feGaussianBlur stdDeviation="2"/>
<feComposite in2="hardAlpha" operator="out"/>
<feColorMatrix type="matrix" values="0 0 0 0 0 0 0 0 0 0 0 0 0 0 0 0 0 0 0.25 0"/>
<feBlend mode="normal" in2="effect1_dropShadow_2_12" result="effect2_dropShadow_2_12"/>
<feBlend mode="normal" in="SourceGraphic" in2="effect2_dropShadow_2_12" result="shape"/>
</filter>
</defs>
</svg>
