<?xml version="1.0" standalone="no"?>
<!DOCTYPE svg PUBLIC "-//W3C//DTD SVG 20010904//EN"
 "http://www.w3.org/TR/2001/REC-SVG-20010904/DTD/svg10.dtd">
<svg version="1.0" xmlns="http://www.w3.org/2000/svg"
 width="500.000000pt" height="500.000000pt" viewBox="0 0 500.000000 500.000000"
 preserveAspectRatio="xMidYMid meet">

<g transform="translate(0.000000,500.000000) scale(0.100000,-0.100000)"
fill="#000000" stroke="none">
<path d="M7 4993 c-4 -3 -7 -1128 -7 -2500 l0 -2493 2500 0 2500 0 0 2500 0
2500 -2493 0 c-1372 0 -2497 -3 -2500 -7z m2097 -1269 l414 -195 418 196 c229
108 423 194 430 191 19 -7 87 -97 148 -195 161 -260 220 -454 220 -721 1 -339
-117 -623 -359 -866 -240 -243 -532 -364 -875 -364 -339 0 -632 121 -870 360
-241 240 -363 535 -362 875 0 314 102 581 316 826 42 49 84 89 92 89 8 0 201
-88 428 -196z m-594 -2254 c0 -115 -12 -161 -45 -174 -34 -13 -103 -6 -125 12
-20 16 -21 21 -11 41 9 16 17 20 29 15 9 -4 31 -8 47 -8 l30 -1 3 83 3 82 -51
0 c-46 0 -50 2 -50 23 0 13 3 27 7 30 3 4 42 7 85 7 l78 0 0 -110z m269 95
c53 -27 81 -71 81 -127 0 -93 -58 -148 -157 -148 -117 0 -184 107 -131 209 14
28 36 51 58 63 42 22 111 23 149 3z m326 1 c47 -20 62 -54 42 -96 -15 -29 -15
-32 4 -51 27 -27 24 -70 -7 -100 -23 -22 -36 -24 -130 -27 l-104 -4 0 146 0
146 80 0 c48 0 95 -6 115 -14z m440 -16 c0 -22 -5 -25 -42 -28 l-42 -3 -3
-112 -3 -112 -35 0 -35 0 -3 113 -3 112 -40 0 c-41 0 -57 15 -45 45 5 13 26
15 128 13 l123 -3 0 -25z m209 16 c68 -28 90 -113 41 -162 l-25 -25 25 -37
c32 -48 32 -52 -9 -52 -28 0 -38 6 -60 40 -21 32 -32 40 -56 40 -28 0 -30 -2
-30 -40 0 -39 -1 -40 -35 -40 l-35 0 0 138 c0 76 3 142 7 145 12 13 143 7 177
-7z m333 -126 c34 -74 62 -138 62 -142 1 -5 -15 -8 -35 -8 -31 0 -37 4 -47 30
-11 29 -13 30 -77 30 -64 0 -66 -1 -77 -30 -10 -26 -16 -30 -47 -30 l-36 0 14
33 c31 73 98 222 107 239 8 14 19 18 42 16 30 -3 34 -9 94 -138z m301 120 c37
-23 39 -31 13 -54 -18 -17 -22 -17 -43 -2 -54 38 -132 -1 -132 -67 0 -72 86
-116 136 -70 18 16 20 15 41 -5 l21 -22 -22 -22 c-16 -17 -36 -23 -84 -26 -53
-3 -68 0 -98 20 -94 63 -87 202 12 251 46 23 116 21 156 -3z m142 -40 c0 -33
3 -60 8 -60 4 0 31 27 60 60 46 51 58 60 88 60 19 0 34 -4 34 -8 0 -4 -23 -34
-51 -65 -32 -36 -48 -61 -43 -69 5 -7 30 -41 56 -74 26 -34 48 -64 48 -68 0
-3 -17 -6 -37 -6 -34 1 -43 7 -83 57 l-44 55 -18 -22 c-10 -12 -18 -37 -18
-56 0 -32 -2 -34 -35 -34 l-35 0 0 138 c0 76 3 142 7 145 3 4 19 7 35 7 28 0
28 -1 28 -60z"/>
<path d="M1707 3789 c9 -24 78 -198 153 -386 l135 -341 165 150 c91 83 193
176 227 208 l62 56 -366 173 c-200 95 -371 175 -379 178 -12 4 -12 -2 3 -38z"/>
<path d="M2965 3655 c-165 -79 -317 -152 -338 -162 l-38 -18 217 -188 c119
-104 220 -185 225 -180 4 4 59 154 122 333 64 179 118 333 122 343 4 9 3 17
-1 16 -5 0 -144 -65 -309 -144z"/>
<path d="M3231 3429 c-73 -206 -194 -540 -268 -743 l-135 -369 26 -176 c15
-97 29 -188 32 -203 l5 -27 52 20 c302 118 561 398 660 714 46 147 52 192 51
370 -1 152 -4 181 -28 269 -14 54 -40 131 -57 170 -33 77 -144 274 -182 320
l-23 28 -133 -373z"/>
<path d="M1570 3693 c-28 -38 -75 -117 -105 -178 -142 -287 -161 -579 -60
-883 89 -266 272 -490 515 -632 85 -50 220 -105 229 -93 11 12 64 370 59 396
-7 38 -573 1457 -581 1457 -4 0 -30 -30 -57 -67z"/>
<path d="M2442 3364 c-40 -36 -72 -70 -72 -76 0 -6 14 -27 30 -48 17 -21 30
-48 30 -60 0 -12 -45 -307 -100 -655 -55 -348 -100 -637 -100 -643 0 -5 35
-15 78 -22 173 -29 502 -3 502 39 0 10 -43 299 -95 642 -52 343 -95 635 -95
648 0 13 14 40 30 61 l30 38 -79 71 c-43 39 -80 71 -83 71 -2 0 -36 -30 -76
-66z"/>
<path d="M2167 3114 c-75 -69 -137 -129 -137 -132 0 -4 46 -123 102 -266 82
-208 104 -254 109 -235 16 51 110 674 105 694 -3 11 -14 30 -24 42 l-17 23
-138 -126z"/>
<path d="M2721 3214 c-12 -15 -21 -33 -21 -41 0 -15 99 -672 103 -685 1 -5
151 393 194 517 2 6 -41 49 -94 95 -54 47 -112 97 -129 113 l-32 27 -21 -26z"/>
<path d="M1654 1496 c-37 -31 -38 -84 -4 -121 51 -54 140 -16 140 60 0 74 -80
110 -136 61z"/>
<path d="M1980 1491 c0 -29 2 -31 38 -31 46 0 65 12 60 36 -2 15 -14 20 -51
22 -46 3 -47 3 -47 -27z"/>
<path d="M1980 1380 c0 -30 1 -30 55 -30 40 0 57 4 61 15 11 27 -16 45 -67 45
-48 0 -49 -1 -49 -30z"/>
<path d="M2647 1513 c-4 -3 -7 -24 -7 -45 l0 -38 43 0 c24 0 48 5 55 12 18 18
14 56 -7 68 -22 11 -74 14 -84 3z"/>
<path d="M2967 1450 l-15 -40 38 0 38 0 -15 40 c-9 22 -19 40 -23 40 -4 0 -14
-18 -23 -40z"/>
</g>
</svg>
