<!-- <svg width="164" height="50" viewBox="0 0 164 50" fill="none" xmlns="http://www.w3.org/2000/svg">
<path d="M78.55 16.45V28.4C78.55 30.25 78.025 31.675 76.975 32.675C75.9417 33.675 74.5417 34.175 72.775 34.175C70.925 34.175 69.4417 33.65 68.325 32.6C67.2083 31.55 66.65 30.0583 66.65 28.125H70.9C70.9 28.8583 71.05 29.4167 71.35 29.8C71.65 30.1667 72.0833 30.35 72.65 30.35C73.1667 30.35 73.5667 30.1833 73.85 29.85C74.1333 29.5167 74.275 29.0333 74.275 28.4V16.45H78.55ZM90.8531 34.2C89.4865 34.2 88.2531 33.9083 87.1531 33.325C86.0698 32.7417 85.2115 31.9083 84.5781 30.825C83.9615 29.7417 83.6531 28.475 83.6531 27.025C83.6531 25.5917 83.9698 24.3333 84.6031 23.25C85.2365 22.15 86.1031 21.3083 87.2031 20.725C88.3031 20.1417 89.5365 19.85 90.9031 19.85C92.2698 19.85 93.5031 20.1417 94.6031 20.725C95.7031 21.3083 96.5698 22.15 97.2031 23.25C97.8365 24.3333 98.1531 25.5917 98.1531 27.025C98.1531 28.4583 97.8281 29.725 97.1781 30.825C96.5448 31.9083 95.6698 32.7417 94.5531 33.325C93.4531 33.9083 92.2198 34.2 90.8531 34.2ZM90.8531 30.5C91.6698 30.5 92.3615 30.2 92.9281 29.6C93.5115 29 93.8031 28.1417 93.8031 27.025C93.8031 25.9083 93.5198 25.05 92.9531 24.45C92.4031 23.85 91.7198 23.55 90.9031 23.55C90.0698 23.55 89.3781 23.85 88.8281 24.45C88.2781 25.0333 88.0031 25.8917 88.0031 27.025C88.0031 28.1417 88.2698 29 88.8031 29.6C89.3531 30.2 90.0365 30.5 90.8531 30.5ZM107.196 22.025C107.596 21.375 108.171 20.85 108.921 20.45C109.671 20.05 110.529 19.85 111.496 19.85C112.646 19.85 113.688 20.1417 114.621 20.725C115.554 21.3083 116.288 22.1417 116.821 23.225C117.371 24.3083 117.646 25.5667 117.646 27C117.646 28.4333 117.371 29.7 116.821 30.8C116.288 31.8833 115.554 32.725 114.621 33.325C113.688 33.9083 112.646 34.2 111.496 34.2C110.513 34.2 109.654 34.0083 108.921 33.625C108.188 33.225 107.613 32.7 107.196 32.05V34H102.921V15.5H107.196V22.025ZM113.296 27C113.296 25.9333 112.996 25.1 112.396 24.5C111.813 23.8833 111.088 23.575 110.221 23.575C109.371 23.575 108.646 23.8833 108.046 24.5C107.463 25.1167 107.171 25.9583 107.171 27.025C107.171 28.0917 107.463 28.9333 108.046 29.55C108.646 30.1667 109.371 30.475 110.221 30.475C111.071 30.475 111.796 30.1667 112.396 29.55C112.996 28.9167 113.296 28.0667 113.296 27ZM124.539 18.6C123.789 18.6 123.172 18.3833 122.689 17.95C122.222 17.5 121.989 16.95 121.989 16.3C121.989 15.6333 122.222 15.0833 122.689 14.65C123.172 14.2 123.789 13.975 124.539 13.975C125.272 13.975 125.872 14.2 126.339 14.65C126.822 15.0833 127.064 15.6333 127.064 16.3C127.064 16.95 126.822 17.5 126.339 17.95C125.872 18.3833 125.272 18.6 124.539 18.6ZM126.664 20.05V34H122.389V20.05H126.664ZM139.262 23.6H136.962V34H132.687V23.6H131.137V20.05H132.687V19.65C132.687 17.9333 133.179 16.6333 134.162 15.75C135.145 14.85 136.587 14.4 138.487 14.4C138.804 14.4 139.037 14.4083 139.187 14.425V18.05C138.37 18 137.795 18.1167 137.462 18.4C137.129 18.6833 136.962 19.1917 136.962 19.925V20.05H139.262V23.6ZM158.021 20.05L149.271 40.625H144.671L147.871 33.525L142.196 20.05H146.971L150.196 28.775L153.396 20.05H158.021Z" fill="#2CB1BC"/>
<rect width="50" height="50" rx="10" fill="#2CB1BC"/>
<path d="M26.0039 9.5625H31.8633V29.25C31.8633 31.0599 31.4596 32.6615 30.6523 34.0547C29.8581 35.4349 28.7318 36.5026 27.2734 37.2578C25.8151 38.013 24.168 38.3906 22.332 38.3906C19.3242 38.3906 16.9805 37.6289 15.3008 36.1055C13.6211 34.569 12.7812 32.401 12.7812 29.6016H18.6797C18.6797 30.9948 18.9727 32.0234 19.5586 32.6875C20.1445 33.3516 21.069 33.6836 22.332 33.6836C23.4518 33.6836 24.3438 33.2995 25.0078 32.5312C25.6719 31.763 26.0039 30.6693 26.0039 29.25V9.5625Z" fill="white"/>
</svg> -->

<svg width="164" height="90" viewBox="0 0 1089 384" fill="none" xmlns="http://www.w3.org/2000/svg">
<g filter="url(#filter0_dd_2_13)">
<path d="M150.5 74L238.962 102.838L293.634 178.338V271.662L238.962 347.162L150.5 376L62.0383 347.162L7.366 271.662V178.338L62.0383 102.838L150.5 74Z" fill="#AA80FB"/>
</g>
<g filter="url(#filter1_dd_2_13)">
<path d="M133.081 271.501L133.484 295C133.484 297.596 133.081 299.7 132.275 301.311C131.559 302.922 130.082 305.026 127.844 307.622C125.696 310.218 122.16 315.142 117.236 322.393C112.402 329.733 109.135 334.254 107.434 335.955C105.823 337.655 103.943 339.446 101.794 341.326C99.646 343.295 97.5871 344.28 95.6177 344.28C93.6483 344.28 92.3055 344.101 91.5894 343.743C90.9627 343.474 90.5599 343.071 90.3809 342.534C90.2913 341.997 90.2913 341.415 90.3809 340.789C90.4704 340.251 91.1418 338.73 92.395 336.223C101.884 320.916 107.658 307.891 109.717 297.148C110.522 292.762 110.925 288.197 110.925 283.452V200.469C110.925 197.604 110.209 195.545 108.777 194.292C107.345 193.039 105.823 192.367 104.211 192.278C102.6 192.188 101.481 191.92 100.854 191.472C100.228 191.025 99.9146 190.129 99.9146 188.787C99.9146 187.354 99.9593 186.549 100.049 186.37C100.228 186.191 100.496 186.012 100.854 185.833C101.213 185.564 101.436 185.385 101.526 185.295L125.696 167.437C126.322 166.989 126.815 166.899 127.173 167.168C127.531 167.347 128.605 167.705 130.396 168.242C132.186 168.779 133.081 169.764 133.081 171.196V271.501ZM132.678 100.164V111.04C132.678 111.846 132.454 112.472 132.007 112.92C131.649 113.278 129.769 114.084 126.367 115.337C123.055 116.59 120.549 117.62 118.848 118.425C115.267 120.216 113.253 120.887 112.805 120.439C112.447 119.992 112.268 118.201 112.268 115.068V100.029C112.268 99.2236 112.447 98.6418 112.805 98.2837C113.253 97.8361 115.133 96.9857 118.445 95.7324C121.847 94.4792 124.398 93.4497 126.099 92.644C129.679 90.8537 131.649 90.1823 132.007 90.6299C132.454 91.0775 132.678 94.2554 132.678 100.164ZM172.424 143.132C172.693 141.342 174.304 140.447 177.258 140.447C180.302 140.447 181.824 141.342 181.824 143.132V167.034H205.591C210.156 167.034 212.439 167.616 212.439 168.779V180.596C212.439 181.759 210.156 182.341 205.591 182.341H181.824V265.728C181.824 276.38 184.957 282.333 191.223 283.586C195.968 284.571 200.891 282.781 205.994 278.215C208.053 276.335 209.485 275.888 210.291 276.873C211.186 277.857 211.812 278.618 212.17 279.155C212.528 279.692 212.708 280.229 212.708 280.767C212.708 281.214 212.708 281.572 212.708 281.841C212.797 282.288 212.305 283.049 211.23 284.124L208.411 286.541C199.101 294.597 190.015 298.267 181.152 297.551C172.38 296.835 166.203 291.688 162.622 282.109C160.653 276.917 159.668 270.606 159.668 263.176V182.341H153.491C148.926 182.341 146.643 181.759 146.643 180.596V168.779C146.643 167.616 148.523 167.034 152.283 167.034C158.907 167.034 163.652 164.706 166.516 160.051C169.47 155.396 171.44 149.757 172.424 143.132Z" fill="#F7F2FF"/>
</g>
<path d="M414.688 258.483L414.989 276C414.989 277.935 414.688 279.503 414.088 280.705C413.554 281.906 412.453 283.474 410.785 285.409C409.183 287.344 406.547 291.015 402.877 296.42C399.273 301.892 396.838 305.262 395.57 306.53C394.369 307.798 392.967 309.132 391.366 310.534C389.764 312.002 388.229 312.736 386.761 312.736C385.293 312.736 384.292 312.602 383.758 312.335C383.291 312.135 382.991 311.835 382.857 311.435C382.791 311.034 382.791 310.6 382.857 310.133C382.924 309.733 383.425 308.598 384.359 306.73C391.432 295.319 395.737 285.609 397.271 277.602C397.872 274.332 398.172 270.928 398.172 267.392V205.531C398.172 203.396 397.639 201.861 396.571 200.927C395.503 199.993 394.369 199.492 393.167 199.425C391.966 199.359 391.132 199.158 390.665 198.825C390.198 198.491 389.964 197.824 389.964 196.823C389.964 195.755 389.998 195.154 390.064 195.021C390.198 194.888 390.398 194.754 390.665 194.621C390.932 194.42 391.099 194.287 391.166 194.22L409.183 180.907C409.65 180.574 410.017 180.507 410.284 180.707C410.551 180.84 411.352 181.107 412.687 181.508C414.021 181.908 414.688 182.642 414.688 183.71V258.483ZM414.388 130.758V138.866C414.388 139.467 414.221 139.934 413.888 140.268C413.621 140.535 412.219 141.135 409.684 142.069C407.215 143.004 405.346 143.771 404.078 144.372C401.409 145.706 399.907 146.207 399.574 145.873C399.307 145.539 399.173 144.205 399.173 141.869V130.658C399.173 130.058 399.307 129.624 399.574 129.357C399.907 129.023 401.309 128.389 403.778 127.455C406.314 126.521 408.215 125.753 409.483 125.153C412.153 123.818 413.621 123.318 413.888 123.651C414.221 123.985 414.388 126.354 414.388 130.758ZM454.828 196.222C450.49 198.958 447.287 202.562 445.218 207.033C443.15 211.437 442.115 217.042 442.115 223.849C442.115 230.656 443.984 237.462 447.721 244.269C451.524 251.076 456.696 256.481 463.236 260.485C469.842 264.422 476.382 266.391 482.855 266.391C489.395 266.391 494.7 264.923 498.771 261.986C502.908 259.05 506.044 255.246 508.18 250.575C510.382 245.904 511.483 240.766 511.483 235.16C511.483 223.349 507.713 213.205 500.172 204.73C492.698 196.256 482.655 192.018 470.042 192.018C464.237 192.018 459.165 193.419 454.828 196.222ZM442.416 263.788C438.011 259.517 434.441 254.379 431.705 248.373C429.036 242.367 427.701 235.26 427.701 227.052C427.701 218.844 429.803 210.87 434.007 203.129C438.211 195.388 444.251 189.349 452.125 185.011C459.999 180.674 468.174 178.505 476.649 178.505C492.131 178.505 504.443 183.376 513.585 193.119C522.727 202.795 527.298 214.573 527.298 228.454C527.365 242.334 522.56 254.045 512.884 263.588C503.208 273.064 490.996 277.802 476.249 277.802C469.976 277.802 463.87 276.534 457.931 273.998C452.058 271.462 446.887 268.059 442.416 263.788ZM538.209 128.756L538.309 126.955C538.309 126.621 538.476 126.354 538.81 126.154C539.21 125.887 539.444 125.72 539.51 125.653L557.528 112.34C557.795 112.14 558.495 112.04 559.63 112.04C560.831 112.04 561.699 112.207 562.232 112.541C562.766 112.807 563.033 113.675 563.033 115.143V188.114C573.577 181.708 582.686 178.505 590.36 178.505C605.041 178.505 616.952 183.343 626.095 193.019C635.237 202.695 639.808 214.507 639.808 228.454C639.808 242.334 634.97 254.045 625.294 263.588C615.685 273.064 603.473 277.802 588.658 277.802C577.114 277.802 566.77 273.931 557.628 266.19L545.216 258.783C544.348 258.249 543.915 257.615 543.915 256.881C543.915 256.081 544.348 255.013 545.216 253.678C546.083 252.277 546.517 251.243 546.517 250.575V136.964C546.517 134.829 545.95 133.294 544.815 132.36C543.748 131.426 542.613 130.925 541.412 130.858C540.211 130.792 539.444 130.591 539.11 130.258C538.509 129.857 538.209 129.357 538.209 128.756ZM563.033 201.627V248.473C567.104 254.212 571.375 258.45 575.846 261.186C580.383 263.855 585.622 265.189 591.561 265.189C597.567 265.189 602.872 263.555 607.477 260.285C612.081 256.948 615.718 252.844 618.387 247.973C621.056 243.035 622.391 238.03 622.391 232.958C622.391 222.414 619.121 213.139 612.582 205.131C606.042 197.056 596.499 193.019 583.954 193.019C579.95 193.019 576.079 193.853 572.342 195.521C568.605 197.123 565.502 199.158 563.033 201.627ZM669.437 162.79C669.637 161.455 670.838 160.788 673.041 160.788C675.309 160.788 676.444 161.455 676.444 162.79V180.607H694.161C697.564 180.607 699.266 181.041 699.266 181.908V190.717C699.266 191.584 697.564 192.018 694.161 192.018H676.444V254.179C676.444 262.12 678.779 266.557 683.451 267.492C686.987 268.226 690.658 266.891 694.461 263.488C695.996 262.086 697.064 261.753 697.665 262.487C698.332 263.221 698.799 263.788 699.066 264.188C699.333 264.589 699.466 264.989 699.466 265.39C699.466 265.723 699.466 265.99 699.466 266.19C699.533 266.524 699.166 267.091 698.365 267.892L696.263 269.694C689.323 275.7 682.55 278.436 675.943 277.902C669.404 277.368 664.799 273.531 662.13 266.391C660.662 262.52 659.928 257.816 659.928 252.277V192.018H655.323C651.92 192.018 650.218 191.584 650.218 190.717V181.908C650.218 181.041 651.62 180.607 654.422 180.607C659.361 180.607 662.897 178.872 665.033 175.402C667.235 171.932 668.703 167.728 669.437 162.79ZM709.576 197.323L709.676 195.521C709.676 195.188 709.843 194.921 710.177 194.721C710.577 194.454 710.811 194.287 710.877 194.22L728.895 180.907C729.162 180.707 729.896 180.607 731.097 180.607C732.365 180.607 733.233 180.774 733.7 181.107C734.167 181.374 734.4 182.242 734.4 183.71V200.927C734.801 200.259 735.335 199.525 736.002 198.725C740.807 192.719 745.812 188.081 751.017 184.811C756.222 181.541 762.161 179.906 768.834 179.906C770.969 179.906 772.137 180.173 772.337 180.707C773.472 183.777 774.406 186.68 775.14 189.416L778.243 201.227C778.443 201.961 777.91 202.695 776.642 203.429C775.44 204.097 774.506 204.397 773.839 204.33C773.172 204.263 772.471 203.629 771.737 202.428L770.636 200.626C767.032 197.29 762.828 195.989 758.023 196.723C753.285 197.39 748.781 199.125 744.51 201.928C740.306 204.73 737.203 207.767 735.201 211.037C735.134 211.17 734.968 211.437 734.701 211.837C734.5 212.171 734.4 212.405 734.4 212.538V258.483C734.4 258.817 734.367 259.551 734.3 260.685C734.3 261.753 734.3 262.453 734.3 262.787C734.834 266.991 736.269 269.594 738.604 270.595C740.94 271.596 742.141 272.463 742.208 273.197C742.208 275.066 741.774 276 740.907 276H711.278C710.41 276 709.977 275.399 709.977 274.198C709.977 272.997 710.243 272.23 710.777 271.896C711.311 271.562 711.979 271.229 712.779 270.895C713.647 270.561 714.314 270.161 714.781 269.694C715.782 268.693 716.55 267.558 717.083 266.291C717.684 264.956 717.951 263.388 717.884 261.586C717.884 259.784 717.884 258.75 717.884 258.483V205.531C717.818 203.329 717.25 201.794 716.183 200.927C715.182 199.993 714.081 199.492 712.879 199.425C711.678 199.359 710.877 199.192 710.477 198.925C709.876 198.458 709.576 197.924 709.576 197.323ZM801.166 250.675C801.166 255.146 803.101 258.516 806.971 260.785C810.842 262.987 814.779 264.088 818.783 264.088C822.787 264.088 825.756 263.922 827.691 263.588C829.693 263.254 831.729 262.654 833.797 261.786C837.668 260.185 841.104 258.516 844.107 256.781C844.107 256.781 845.676 255.914 848.812 254.179L843.006 227.553C840.604 228.487 837.634 229.521 834.098 230.656L824.488 233.659C808.94 238.33 801.166 244.002 801.166 250.675ZM841.104 217.243C839.103 198.958 833.797 189.816 825.189 189.816C819.917 189.816 815.313 191.718 811.375 195.521C807.505 199.258 805.57 203.663 805.57 208.734L806.471 212.838C806.471 213.372 805.803 214.206 804.469 215.341C803.201 216.475 802.333 216.842 801.866 216.442L790.255 201.527C790.255 200.66 790.989 199.692 792.457 198.625C793.992 197.557 795.293 196.489 796.361 195.421L798.763 193.119C802.233 189.649 804.669 187.447 806.07 186.513L810.975 183.31C815.78 180.173 821.118 178.605 826.991 178.605C835.599 178.605 842.139 180.941 846.61 185.612C849.68 188.815 851.815 191.985 853.016 195.121C854.217 198.191 855.085 200.693 855.619 202.628C856.753 206.766 857.687 211.57 858.421 217.042L859.522 224.75C859.923 227.82 860.323 230.689 860.724 233.358C861.191 236.028 861.491 237.863 861.625 238.864C861.758 239.798 862.092 241.5 862.625 243.969C863.159 246.371 863.66 248.373 864.127 249.975C865.528 254.713 867.163 258.283 869.032 260.685C870.9 263.021 872.969 264.188 875.238 264.188C877.573 264.188 879.208 263.521 880.143 262.187C881.878 259.651 883.146 258.383 883.946 258.383C884.347 258.383 885.014 258.85 885.948 259.784C886.882 260.718 887.35 261.419 887.35 261.886C887.35 262.353 886.282 263.922 884.146 266.591C882.078 269.193 879.709 271.763 877.04 274.298C874.437 276.834 872.569 278.102 871.434 278.102C867.163 278.102 863.093 276.434 859.222 273.097C855.418 269.694 853.083 266.124 852.215 262.387C850.013 264.389 846.276 266.824 841.004 269.694C830.594 275.299 822.253 278.102 815.98 278.102C809.707 278.102 804.402 277.201 800.064 275.399C795.794 273.598 792.223 270.828 789.354 267.091C786.551 263.354 785.15 259.451 785.15 255.38C785.15 251.309 785.717 247.906 786.852 245.17C787.986 242.434 789.454 240.098 791.256 238.163C793.058 236.161 795.293 234.326 797.962 232.658C800.632 230.923 803.334 229.488 806.07 228.354C811.809 226.018 818.149 223.949 825.089 222.147C832.096 220.279 837.434 218.644 841.104 217.243ZM980.641 250.075C981.708 249.007 983.644 249.875 986.446 252.677C986.646 252.877 986.613 253.178 986.346 253.578C974.668 269.727 960.654 277.802 944.305 277.802C937.966 277.802 931.826 276.534 925.887 273.998C913.675 268.66 904.967 260.118 899.762 248.373C897.092 242.367 895.758 235.26 895.758 227.052C895.758 218.778 897.826 210.836 901.964 203.229C906.168 195.555 912.207 189.516 920.082 185.111C928.023 180.707 937.465 178.505 948.409 178.505C959.353 178.505 968.729 182.409 976.537 190.216C976.603 190.283 977.237 190.717 978.438 191.518C978.572 191.651 978.572 192.018 978.438 192.619L973.033 209.435C972.7 210.436 972.299 211.003 971.832 211.137C971.365 211.203 970.531 211.037 969.33 210.636C968.128 210.236 967.461 209.902 967.328 209.635C967.194 209.368 966.927 207.767 966.527 204.831C966.193 201.828 964.959 199.325 962.823 197.323C957.351 192.118 950.344 189.516 941.803 189.516C935.864 189.516 930.425 191.117 925.487 194.32C920.549 197.457 916.745 201.494 914.076 206.432C911.473 211.304 910.172 217.109 910.172 223.849C910.172 230.589 911.974 237.062 915.577 243.268C919.181 249.474 924.019 254.245 930.091 257.582C936.231 260.852 942.67 262.487 949.41 262.487C956.217 262.42 962.022 261.419 966.827 259.484C971.699 257.549 976.303 254.412 980.641 250.075ZM1027.39 258.483L1027.29 262.787C1027.29 264.255 1027.62 265.823 1028.29 267.492C1029.02 269.093 1030.32 270.261 1032.19 270.995C1034.06 271.729 1035.03 272.463 1035.09 273.197C1035.09 275.066 1034.66 276 1033.79 276H1004.36C1003.5 276 1003.06 275.399 1003.06 274.198C1003.06 272.997 1003.33 272.23 1003.86 271.896C1004.4 271.562 1005.06 271.229 1005.87 270.895C1006.73 270.561 1007.4 270.161 1007.87 269.694C1008.4 269.16 1008.87 268.593 1009.27 267.992C1009.67 267.325 1009.97 266.791 1010.17 266.391C1010.44 265.924 1010.6 265.29 1010.67 264.489C1010.8 263.621 1010.87 263.054 1010.87 262.787V136.964C1010.87 134.762 1010.34 133.227 1009.27 132.36C1008.27 131.426 1007.17 130.925 1005.97 130.858C1004.76 130.792 1003.96 130.591 1003.56 130.258C1002.96 129.857 1002.66 129.357 1002.66 128.756L1002.76 126.955C1002.76 126.621 1002.93 126.354 1003.26 126.154C1003.66 125.887 1003.9 125.72 1003.96 125.653L1021.98 112.34C1022.25 112.14 1022.95 112.04 1024.08 112.04C1025.28 112.04 1026.12 112.207 1026.59 112.541C1027.12 112.807 1027.39 113.675 1027.39 115.143V222.648H1027.59L1060.22 191.518C1061.35 190.383 1061.92 189.282 1061.92 188.214C1061.92 186.546 1061.12 185.512 1059.52 185.111C1057.92 184.711 1057.15 184.144 1057.22 183.41C1057.22 181.541 1057.65 180.607 1058.52 180.607H1081.54C1082.41 180.607 1082.84 181.208 1082.84 182.409C1082.84 183.61 1082.64 184.477 1082.24 185.011C1081.84 185.478 1081.21 186.079 1080.34 186.813C1079.54 187.48 1079 187.947 1078.74 188.214L1048.71 216.842V217.143L1078.54 259.984C1084.28 266.991 1087.14 271.429 1087.14 273.297C1087.14 275.099 1086.71 276 1085.84 276H1060.72C1059.85 276 1059.42 275.433 1059.42 274.298C1059.42 273.097 1059.85 272.23 1060.72 271.696C1063.39 270.161 1064.72 268.993 1064.72 268.192C1064.72 266.858 1064.52 265.99 1064.12 265.59L1037.5 227.553H1037.1L1027.39 236.962V258.483Z" fill="#AA80FB"/>
<defs>
<filter id="filter0_dd_2_13" x="3.36597" y="74" width="294.268" height="310" filterUnits="userSpaceOnUse" color-interpolation-filters="sRGB">
<feFlood flood-opacity="0" result="BackgroundImageFix"/>
<feColorMatrix in="SourceAlpha" type="matrix" values="0 0 0 0 0 0 0 0 0 0 0 0 0 0 0 0 0 0 127 0" result="hardAlpha"/>
<feOffset dy="4"/>
<feGaussianBlur stdDeviation="2"/>
<feComposite in2="hardAlpha" operator="out"/>
<feColorMatrix type="matrix" values="0 0 0 0 0 0 0 0 0 0 0 0 0 0 0 0 0 0 0.25 0"/>
<feBlend mode="normal" in2="BackgroundImageFix" result="effect1_dropShadow_2_13"/>
<feColorMatrix in="SourceAlpha" type="matrix" values="0 0 0 0 0 0 0 0 0 0 0 0 0 0 0 0 0 0 127 0" result="hardAlpha"/>
<feOffset dy="4"/>
<feGaussianBlur stdDeviation="2"/>
<feComposite in2="hardAlpha" operator="out"/>
<feColorMatrix type="matrix" values="0 0 0 0 0 0 0 0 0 0 0 0 0 0 0 0 0 0 0.25 0"/>
<feBlend mode="normal" in2="effect1_dropShadow_2_13" result="effect2_dropShadow_2_13"/>
<feBlend mode="normal" in="SourceGraphic" in2="effect2_dropShadow_2_13" result="shape"/>
</filter>
<filter id="filter1_dd_2_13" x="86.2466" y="89.9585" width="130.595" height="262.321" filterUnits="userSpaceOnUse" color-interpolation-filters="sRGB">
<feFlood flood-opacity="0" result="BackgroundImageFix"/>
<feColorMatrix in="SourceAlpha" type="matrix" values="0 0 0 0 0 0 0 0 0 0 0 0 0 0 0 0 0 0 127 0" result="hardAlpha"/>
<feOffset dy="4"/>
<feGaussianBlur stdDeviation="2"/>
<feComposite in2="hardAlpha" operator="out"/>
<feColorMatrix type="matrix" values="0 0 0 0 0 0 0 0 0 0 0 0 0 0 0 0 0 0 0.25 0"/>
<feBlend mode="normal" in2="BackgroundImageFix" result="effect1_dropShadow_2_13"/>
<feColorMatrix in="SourceAlpha" type="matrix" values="0 0 0 0 0 0 0 0 0 0 0 0 0 0 0 0 0 0 127 0" result="hardAlpha"/>
<feOffset dy="4"/>
<feGaussianBlur stdDeviation="2"/>
<feComposite in2="hardAlpha" operator="out"/>
<feColorMatrix type="matrix" values="0 0 0 0 0 0 0 0 0 0 0 0 0 0 0 0 0 0 0.25 0"/>
<feBlend mode="normal" in2="effect1_dropShadow_2_13" result="effect2_dropShadow_2_13"/>
<feBlend mode="normal" in="SourceGraphic" in2="effect2_dropShadow_2_13" result="shape"/>
</filter>
</defs>
</svg>
