<svg width="583" height="79" viewBox="0 0 583 79" fill="none" xmlns="http://www.w3.org/2000/svg">
<g filter="url(#filter0_d_1_2)">
<path d="M35.3139 1.63636H49.6009V49.304C49.6009 53.7102 48.6106 57.5379 46.63 60.7869C44.6716 64.036 41.9455 66.5395 38.4517 68.2976C34.9579 70.0556 30.8965 70.9347 26.2678 70.9347C22.1508 70.9347 18.4122 70.2114 15.0518 68.7649C11.7138 67.2962 9.06558 65.0708 7.10724 62.0888C5.14891 59.0845 4.18087 55.3125 4.20312 50.7727H18.5902C18.6347 52.5753 19.0019 54.1219 19.6918 55.4126C20.4039 56.6811 21.3719 57.6603 22.5959 58.3501C23.8421 59.0178 25.3108 59.3516 27.0021 59.3516C28.7824 59.3516 30.2846 58.9732 31.5085 58.2166C32.7547 57.4377 33.7005 56.3028 34.3459 54.8118C34.9912 53.3208 35.3139 51.4848 35.3139 49.304V1.63636ZM124.374 35.8182C124.374 43.2732 122.96 49.6155 120.134 54.8452C117.33 60.0748 113.503 64.0694 108.651 66.8288C103.822 69.5661 98.3923 70.9347 92.3615 70.9347C86.2862 70.9347 80.834 69.5549 76.005 66.7955C71.1759 64.036 67.3594 60.0414 64.5554 54.8118C61.7514 49.5821 60.3494 43.2509 60.3494 35.8182C60.3494 28.3632 61.7514 22.0208 64.5554 16.7912C67.3594 11.5616 71.1759 7.57812 76.005 4.84091C80.834 2.08144 86.2862 0.701702 92.3615 0.701702C98.3923 0.701702 103.822 2.08144 108.651 4.84091C113.503 7.57812 117.33 11.5616 120.134 16.7912C122.96 22.0208 124.374 28.3632 124.374 35.8182ZM109.719 35.8182C109.719 30.9891 108.996 26.9167 107.55 23.6009C106.125 20.285 104.112 17.7704 101.508 16.0568C98.9041 14.3433 95.8554 13.4865 92.3615 13.4865C88.8677 13.4865 85.8189 14.3433 83.2152 16.0568C80.6115 17.7704 78.5864 20.285 77.1399 23.6009C75.7157 26.9167 75.0036 30.9891 75.0036 35.8182C75.0036 40.6473 75.7157 44.7197 77.1399 48.0355C78.5864 51.3513 80.6115 53.866 83.2152 55.5795C85.8189 57.2931 88.8677 58.1499 92.3615 58.1499C95.8554 58.1499 98.9041 57.2931 101.508 55.5795C104.112 53.866 106.125 51.3513 107.55 48.0355C108.996 44.7197 109.719 40.6473 109.719 35.8182ZM135.08 70V1.63636H162.453C167.482 1.63636 171.677 2.38186 175.037 3.87287C178.397 5.36387 180.923 7.43347 182.615 10.0817C184.306 12.7076 185.151 15.7341 185.151 19.1612C185.151 21.8317 184.617 24.1795 183.549 26.2045C182.481 28.2074 181.012 29.8542 179.143 31.1449C177.296 32.4134 175.182 33.3146 172.801 33.8487V34.5163C175.404 34.6276 177.841 35.362 180.111 36.7195C182.403 38.0769 184.261 39.9796 185.686 42.4276C187.11 44.8532 187.822 47.7462 187.822 51.1065C187.822 54.7339 186.921 57.9718 185.118 60.8203C183.338 63.6465 180.701 65.883 177.207 67.5298C173.713 69.1766 169.407 70 164.289 70H135.08ZM149.534 58.1832H161.318C165.346 58.1832 168.283 57.4155 170.13 55.88C171.977 54.3222 172.901 52.2526 172.901 49.6712C172.901 47.7796 172.445 46.1106 171.532 44.6641C170.62 43.2176 169.318 42.0826 167.627 41.2592C165.958 40.4358 163.966 40.0241 161.651 40.0241H149.534V58.1832ZM149.534 30.2436H160.249C162.23 30.2436 163.988 29.8987 165.524 29.2088C167.081 28.4967 168.305 27.4953 169.195 26.2045C170.108 24.9138 170.564 23.3672 170.564 21.5646C170.564 19.0945 169.685 17.1027 167.927 15.5895C166.191 14.0762 163.721 13.3196 160.517 13.3196H149.534V30.2436ZM194.623 13.5533V1.63636H250.77V13.5533H229.84V70H215.553V13.5533H194.623ZM260.016 70V1.63636H286.988C292.15 1.63636 296.557 2.55989 300.206 4.40696C303.878 6.23177 306.671 8.82434 308.585 12.1847C310.521 15.5227 311.489 19.4505 311.489 23.968C311.489 28.5078 310.51 32.4134 308.551 35.6847C306.593 38.9337 303.756 41.4261 300.039 43.1619C296.345 44.8977 291.872 45.7656 286.62 45.7656H268.561V34.1491H284.284C287.043 34.1491 289.335 33.7708 291.16 33.0142C292.985 32.2576 294.342 31.1226 295.233 29.6094C296.145 28.0961 296.601 26.2157 296.601 23.968C296.601 21.6982 296.145 19.7843 295.233 18.2266C294.342 16.6688 292.974 15.4893 291.127 14.6882C289.302 13.8648 286.999 13.4531 284.217 13.4531H274.47V70H260.016ZM296.935 38.8892L313.926 70H297.97L281.346 38.8892H296.935ZM333.487 70H317.998L341.598 1.63636H360.225L383.792 70H368.303L351.179 17.2585H350.645L333.487 70ZM332.519 43.1285H369.104V54.4112H332.519V43.1285ZM449.126 25.5703H434.505C434.238 23.6787 433.693 21.9986 432.869 20.5298C432.046 19.0388 430.989 17.7704 429.698 16.7244C428.408 15.6785 426.917 14.8774 425.225 14.321C423.556 13.7647 421.743 13.4865 419.784 13.4865C416.246 13.4865 413.164 14.3655 410.538 16.1236C407.912 17.8594 405.876 20.3963 404.429 23.7344C402.983 27.0502 402.259 31.0781 402.259 35.8182C402.259 40.6918 402.983 44.7865 404.429 48.1023C405.898 51.4181 407.945 53.9216 410.571 55.6129C413.197 57.3042 416.235 58.1499 419.684 58.1499C421.62 58.1499 423.412 57.8939 425.058 57.3821C426.727 56.8703 428.207 56.1248 429.498 55.1456C430.789 54.1442 431.857 52.9313 432.703 51.5071C433.57 50.0829 434.171 48.4583 434.505 46.6335L449.126 46.7003C448.748 49.8381 447.802 52.8646 446.289 55.7798C444.798 58.6728 442.784 61.2654 440.247 63.5575C437.732 65.8274 434.728 67.63 431.234 68.9652C427.762 70.2782 423.834 70.9347 419.45 70.9347C413.353 70.9347 407.901 69.5549 403.094 66.7955C398.309 64.036 394.526 60.0414 391.744 54.8118C388.985 49.5821 387.605 43.2509 387.605 35.8182C387.605 28.3632 389.007 22.0208 391.811 16.7912C394.615 11.5616 398.421 7.57812 403.227 4.84091C408.034 2.08144 413.442 0.701702 419.45 0.701702C423.412 0.701702 427.084 1.25805 430.466 2.37074C433.871 3.48343 436.886 5.10795 439.512 7.24431C442.138 9.35842 444.275 11.951 445.921 15.022C447.59 18.093 448.659 21.6091 449.126 25.5703ZM459.491 70V1.63636H473.944V31.7791H474.846L499.447 1.63636H516.772L491.403 32.2464L517.072 70H499.781L481.055 41.8935L473.944 50.5724V70H459.491ZM524.299 70V1.63636H551.271C556.434 1.63636 560.84 2.55989 564.49 4.40696C568.161 6.23177 570.954 8.82434 572.868 12.1847C574.804 15.5227 575.772 19.4505 575.772 23.968C575.772 28.5078 574.793 32.4134 572.835 35.6847C570.876 38.9337 568.039 41.4261 564.323 43.1619C560.628 44.8977 556.155 45.7656 550.904 45.7656H532.845V34.1491H548.567C551.326 34.1491 553.619 33.7708 555.443 33.0142C557.268 32.2576 558.626 31.1226 559.516 29.6094C560.428 28.0961 560.884 26.2157 560.884 23.968C560.884 21.6982 560.428 19.7843 559.516 18.2266C558.626 16.6688 557.257 15.4893 555.41 14.6882C553.585 13.8648 551.282 13.4531 548.5 13.4531H538.753V70H524.299ZM561.218 38.8892L578.209 70H562.253L545.629 38.8892H561.218Z" fill="#925CFA"/>
</g>
<defs>
<filter id="filter0_d_1_2" x="0.169739" y="0.701706" width="582.039" height="78.233" filterUnits="userSpaceOnUse" color-interpolation-filters="sRGB">
<feFlood flood-opacity="0" result="BackgroundImageFix"/>
<feColorMatrix in="SourceAlpha" type="matrix" values="0 0 0 0 0 0 0 0 0 0 0 0 0 0 0 0 0 0 127 0" result="hardAlpha"/>
<feOffset dy="4"/>
<feGaussianBlur stdDeviation="2"/>
<feComposite in2="hardAlpha" operator="out"/>
<feColorMatrix type="matrix" values="0 0 0 0 0 0 0 0 0 0 0 0 0 0 0 0 0 0 0.25 0"/>
<feBlend mode="normal" in2="BackgroundImageFix" result="effect1_dropShadow_1_2"/>
<feBlend mode="normal" in="SourceGraphic" in2="effect1_dropShadow_1_2" result="shape"/>
</filter>
</defs>
</svg>
